<?xml version="1.0" encoding="utf-8"?>
<!-- Generator: Adobe Illustrator 25.3.0, SVG Export Plug-In . SVG Version: 6.00 Build 0)  -->
<svg version="1.1" id="Capa_1" xmlns="http://www.w3.org/2000/svg" xmlns:xlink="http://www.w3.org/1999/xlink" x="0px" y="0px"
	 viewBox="0 0 671 190" style="enable-background:new 0 0 671 190;" xml:space="preserve">
<style type="text/css">
	.st0{fill:#DABFFF;}
	.st1{fill:#2C2A4A;}
</style>
<g>
	<g>
		<path class="st0" d="M129.41,82.36c-3.52,5.03-5.03,33.23-0.63,38.64c2.52,3.02,3.15,4.53,3.15,6.8c0,4.91-7.05,5.79-14.72,5.79
			h-1.13c-7.68,0-14.73-0.88-14.73-5.79c0-2.26,1.13-4.4,3.02-6.8c2.64-3.4,3.27-13.84,2.52-23.54c0,0-10.57,31.59-19.38,31.59
			c-4.03,0-6.17-2.77-6.17-5.79c0-13.21-13.09-28.44-13.09-28.44c-0.76,12.59,1.13,27.69,4.66,31.71c1.01,1.01,1.76,1.89,1.89,2.9
			c0.38,2.39-4.4,4.15-9.82,4.15c-5.92,0-10.07-1.76-9.82-4.15c0.13-1.01,1.01-1.89,2.01-2.9c5.79-6.42,6.92-40.52-0.13-47.32
			c-1.01-1.01-1.76-2.01-1.89-3.02c-0.25-2.26,2.01-5.79,9.82-5.79h10.07c11.83,0,19.13,21.52,20.39,37.88
			c8.43-15.35,5.92-30.08,5.92-32.09c0-4.78,7.05-5.79,14.73-5.79h1.13c7.68,0,14.72,1.01,14.72,5.79
			C131.92,78.21,130.54,80.85,129.41,82.36z"/>
	</g>
	<g>
		<path class="st0" d="M160.24,126.03c1.13,1.26,2.64,1.64,2.39,3.15c-0.5,3.78-10.19,4.41-15.1,4.41s-14.1-0.63-14.6-4.41
			c-0.25-1.64,1.13-2.27,2.27-3.4c2.64-2.39,3.15-14.98,0.5-18.37c-1.26-1.64-3.02-2.64-2.77-4.53c0.5-3.78,7.05-6.42,11.45-8.68
			c4.4-2.14,16.36-8.31,14.47-0.25C158.1,97.59,154.45,119.99,160.24,126.03z M136.71,80.6c0-5.16,4.15-9.31,9.31-9.31
			s9.31,4.15,9.31,9.31s-4.15,9.31-9.31,9.31S136.71,85.76,136.71,80.6z"/>
	</g>
	<g>
		<path class="st0" d="M240.41,90.42c0,10.7-11.33,19.89-25.04,19.89h-7.17c0.38,5.54,1.13,8.94,2.52,10.7
			c1.51,1.76,3.15,4.53,3.15,6.8c0,4.91-7.05,5.79-14.73,5.79H198c-7.68,0-14.73-0.88-14.73-5.79c0-2.26,1.64-5.03,3.02-6.8
			c4.53-5.41,3.02-33.6-0.5-38.64c-1.13-1.51-2.52-4.15-2.52-6.17c0-4.78,7.05-5.79,14.73-5.79h17.37
			C229.08,70.41,240.41,79.72,240.41,90.42z M222.41,90.42c0-6.8-4.4-15.1-9.56-15.1c-6.8,0-6.8,30.08,0,30.08
			C217.75,105.39,222.41,97.09,222.41,90.42z"/>
	</g>
	<g>
		<path class="st0" d="M283.33,111.81c0,12.08-10.57,21.77-23.54,21.77c-12.96,0-23.41-9.69-23.41-21.77s10.45-21.9,23.41-21.9
			C272.75,89.91,283.33,99.73,283.33,111.81z M265.08,112.06c0-9.31-2.39-16.86-5.29-16.86c-2.89,0-5.16,7.55-5.16,16.86
			s2.27,16.99,5.16,16.99C262.69,129.05,265.08,121.38,265.08,112.06z"/>
	</g>
	<g>
		<path class="st0" d="M320.2,104.64c-2.01-2.77-4.03-5.92-7.43-5.92c-1.26,0-3.4,0.88-3.78,5.16c-0.63,8.05-0.88,18.38,2.77,22.15
			c1.13,1.26,2.64,1.64,2.39,3.15c-0.5,3.78-10.19,4.41-15.1,4.41s-14.1-0.63-14.6-4.41c-0.25-1.64,1.13-2.27,2.27-3.4
			c2.64-2.39,3.15-14.98,0.5-18.37c-1.26-1.64-3.02-2.64-2.77-4.53c0.5-3.78,7.05-6.42,11.45-8.68c4.4-2.14,16.36-8.31,14.47-0.25
			c0,0.38-0.13,0.88-0.25,1.64c2.89-3.27,7.55-5.66,11.83-5.66c6.17,0,10.19,2.89,12.21,5.66
			C338.2,101.12,326.74,114.2,320.2,104.64z"/>
	</g>
	<g>
		<path class="st0" d="M374.44,99.23v4.15h-11.83c-0.38,9.69,0.12,19.38,3.65,21.65c1.64,1.01,3.65,0,4.28,1.13
			c1.64,3.65-6.42,7.43-15.61,7.43c-7.93,0-13.84-3.52-13.84-11.33v-18.88h-2.9c-1.26,0-2.39-1.13-2.39-2.39v-1.76
			c0-1.38,1.13-2.01,2.39-2.52c7.3-2.77,15.86-19.88,22.91-19.88c1.64,0,4.28,0,3.65,5.16c0,0.13-1.01,6.67-1.64,14.72h8.81
			C373.31,96.71,374.44,97.84,374.44,99.23z"/>
	</g>
	<g>
		<path class="st0" d="M425.29,125.53c1.38,1.38,3.4,1.89,3.15,3.65c-0.38,2.39-4.53,4.41-9.44,4.41c-6.67,0-11.45-4.91-15.1-4.91
			c-3.52,0-6.8,4.91-15.1,4.91c-10.57,0-17.75-6.8-14.6-15.23c2.64-7.55,13.47-7.3,21.65-9.94c8.56-2.64,7.17-11.45,3.4-13.34
			c-3.78-1.76-3.78,5.16-4.91,8.18c-3.02,7.93-23.91,3.27-13.34-7.8c3.15-3.15,8.81-5.54,17.12-5.54
			C428.43,89.91,416.73,117.48,425.29,125.53z M399.99,124.65c1.38-0.25,2.01-1.64,2.26-2.39c0.88-4.53,0.63-8.05,0.13-10.32
			c-0.25-1.13-1.38-1.38-3.02,0.25c-2.77,2.77-7.68,4.4-7.05,8.43C392.82,124.15,396.97,125.15,399.99,124.65z"/>
	</g>
	<g>
		<path class="st0" d="M459.14,84.25c2.14-6.17-1.64-10.57-6.04-8.81c-5.79,2.14-4.91,18.38,0.88,21.27h8.56
			c1.38,0,2.52,1.13,2.52,2.52v4.15h-11.71c-0.38,7.17-0.5,18,2.27,21.52c1.26,1.51,3.4,2.01,3.15,4.28
			c-0.63,3.78-10.19,4.41-15.1,4.41s-15.61-0.63-16.11-4.41c-0.25-2.01,2.27-2.27,3.65-4.03c2.64-3.4,3.27-14.1,2.89-21.77h-2.64
			c-1.38,0-2.39-1.13-2.39-2.39v-1.76c0-1.38,1.01-2.52,2.39-2.52h1.89c-3.4-15.23,9.06-26.3,22.02-26.3h0.13
			c10.57,0,19.76,4.03,22.15,12.33C480.79,94.32,455.11,96.33,459.14,84.25z"/>
	</g>
	<g>
		<path class="st0" d="M513.51,111.81c0,12.08-10.57,21.77-23.53,21.77s-23.41-9.69-23.41-21.77s10.45-21.9,23.41-21.9
			S513.51,99.73,513.51,111.81z M495.26,112.06c0-9.31-2.39-16.86-5.29-16.86s-5.16,7.55-5.16,16.86s2.27,16.99,5.16,16.99
			S495.26,121.38,495.26,112.06z"/>
	</g>
	<g>
		<path class="st0" d="M540.44,126.03c1.13,1.26,2.64,1.64,2.39,3.15c-0.5,3.78-10.19,4.41-15.1,4.41c-4.91,0-14.1-0.63-14.6-4.41
			c-0.25-1.64,1.13-2.27,2.27-3.4c2.64-2.39,2.77-12.58,2.77-19.76c0-8.18,0.38-14.6-2.27-18c-1.26-1.76-3.02-2.64-2.77-4.66
			c0.5-3.78,7.05-6.29,11.45-8.56c4.4-2.27,16.36-8.43,14.47-0.25C538.3,78.08,534.65,119.99,540.44,126.03z"/>
	</g>
	<g>
		<path class="st0" d="M570.77,126.03c1.13,1.26,2.64,1.64,2.39,3.15c-0.5,3.78-10.19,4.41-15.1,4.41c-4.91,0-14.1-0.63-14.6-4.41
			c-0.25-1.64,1.13-2.27,2.27-3.4c2.64-2.39,3.15-14.98,0.5-18.37c-1.26-1.64-3.02-2.64-2.77-4.53c0.5-3.78,7.05-6.42,11.45-8.68
			c4.4-2.14,16.36-8.31,14.47-0.25C568.63,97.59,564.98,119.99,570.77,126.03z M547.23,80.6c0-5.16,4.15-9.31,9.31-9.31
			s9.31,4.15,9.31,9.31s-4.15,9.31-9.31,9.31S547.23,85.76,547.23,80.6z"/>
	</g>
	<g>
		<path class="st0" d="M620.73,111.81c0,12.08-10.57,21.77-23.53,21.77s-23.41-9.69-23.41-21.77s10.45-21.9,23.41-21.9
			S620.73,99.73,620.73,111.81z M602.48,112.06c0-9.31-2.39-16.86-5.29-16.86s-5.16,7.55-5.16,16.86s2.27,16.99,5.16,16.99
			S602.48,121.38,602.48,112.06z"/>
	</g>
</g>
<g>
	<path class="st1" d="M125.09,79.36c-3.52,5.03-5.03,33.23-0.63,38.64c2.52,3.02,3.15,4.53,3.15,6.8c0,4.91-7.05,5.79-14.72,5.79
		h-1.13c-7.68,0-14.73-0.88-14.73-5.79c0-2.26,1.13-4.4,3.02-6.8c2.64-3.4,3.27-13.84,2.52-23.54c0,0-10.57,31.59-19.38,31.59
		c-4.03,0-6.17-2.77-6.17-5.79c0-13.21-13.09-28.44-13.09-28.44c-0.76,12.59,1.13,27.69,4.66,31.71c1.01,1.01,1.76,1.89,1.89,2.9
		c0.38,2.39-4.4,4.15-9.82,4.15c-5.92,0-10.07-1.76-9.82-4.15c0.13-1.01,1.01-1.89,2.01-2.9c5.79-6.42,6.92-40.52-0.13-47.32
		c-1.01-1.01-1.76-2.01-1.89-3.02c-0.25-2.26,2.01-5.79,9.82-5.79h10.07c11.83,0,19.13,21.52,20.39,37.88
		c8.43-15.35,5.92-30.08,5.92-32.09c0-4.78,7.05-5.79,14.73-5.79h1.13c7.68,0,14.72,1.01,14.72,5.79
		C127.6,75.21,126.22,77.85,125.09,79.36z"/>
	<path class="st1" d="M155.92,123.03c1.13,1.26,2.64,1.64,2.39,3.15c-0.5,3.78-10.19,4.41-15.1,4.41s-14.1-0.63-14.6-4.41
		c-0.25-1.64,1.13-2.27,2.27-3.4c2.64-2.39,3.15-14.98,0.5-18.37c-1.26-1.64-3.02-2.64-2.77-4.53c0.5-3.78,7.05-6.42,11.45-8.68
		c4.4-2.14,16.36-8.31,14.47-0.25C153.78,94.59,150.13,116.99,155.92,123.03z M132.38,77.6c0-5.16,4.15-9.31,9.31-9.31
		s9.31,4.15,9.31,9.31s-4.15,9.31-9.31,9.31S132.38,82.76,132.38,77.6z"/>
	<path class="st1" d="M236.09,87.42c0,10.7-11.33,19.89-25.04,19.89h-7.17c0.38,5.54,1.13,8.94,2.52,10.7
		c1.51,1.76,3.15,4.53,3.15,6.8c0,4.91-7.05,5.79-14.73,5.79h-1.13c-7.68,0-14.73-0.88-14.73-5.79c0-2.26,1.64-5.03,3.02-6.8
		c4.53-5.41,3.02-33.6-0.5-38.64c-1.13-1.51-2.52-4.15-2.52-6.17c0-4.78,7.05-5.79,14.73-5.79h17.37
		C224.76,67.41,236.09,76.72,236.09,87.42z M218.09,87.42c0-6.8-4.4-15.1-9.56-15.1c-6.8,0-6.8,30.08,0,30.08
		C213.43,102.39,218.09,94.09,218.09,87.42z"/>
	<path class="st1" d="M279.01,108.81c0,12.08-10.57,21.77-23.54,21.77c-12.96,0-23.41-9.69-23.41-21.77s10.45-21.9,23.41-21.9
		C268.43,86.91,279.01,96.73,279.01,108.81z M260.76,109.06c0-9.31-2.39-16.86-5.29-16.86c-2.89,0-5.16,7.55-5.16,16.86
		s2.27,16.99,5.16,16.99C258.37,126.05,260.76,118.38,260.76,109.06z"/>
	<path class="st1" d="M315.88,101.64c-2.01-2.77-4.03-5.92-7.43-5.92c-1.26,0-3.4,0.88-3.78,5.16c-0.63,8.05-0.88,18.38,2.77,22.15
		c1.13,1.26,2.64,1.64,2.39,3.15c-0.5,3.78-10.19,4.41-15.1,4.41s-14.1-0.63-14.6-4.41c-0.25-1.64,1.13-2.27,2.27-3.4
		c2.64-2.39,3.15-14.98,0.5-18.37c-1.26-1.64-3.02-2.64-2.77-4.53c0.5-3.78,7.05-6.42,11.45-8.68c4.4-2.14,16.36-8.31,14.47-0.25
		c0,0.38-0.13,0.88-0.25,1.64c2.89-3.27,7.55-5.66,11.83-5.66c6.17,0,10.19,2.89,12.21,5.66
		C333.88,98.12,322.42,111.2,315.88,101.64z"/>
	<path class="st1" d="M370.12,96.23v4.15h-11.83c-0.38,9.69,0.12,19.38,3.65,21.65c1.64,1.01,3.65,0,4.28,1.13
		c1.64,3.65-6.42,7.43-15.61,7.43c-7.93,0-13.84-3.52-13.84-11.33v-18.88h-2.9c-1.26,0-2.39-1.13-2.39-2.39v-1.76
		c0-1.38,1.13-2.01,2.39-2.52c7.3-2.77,15.86-19.88,22.91-19.88c1.64,0,4.28,0,3.65,5.16c0,0.13-1.01,6.67-1.64,14.72h8.81
		C368.99,93.71,370.12,94.84,370.12,96.23z"/>
	<path class="st1" d="M420.96,122.53c1.38,1.38,3.4,1.89,3.15,3.65c-0.38,2.39-4.53,4.41-9.44,4.41c-6.67,0-11.45-4.91-15.1-4.91
		c-3.52,0-6.8,4.91-15.1,4.91c-10.57,0-17.75-6.8-14.6-15.23c2.64-7.55,13.47-7.3,21.65-9.94c8.56-2.64,7.17-11.45,3.4-13.34
		c-3.78-1.76-3.78,5.16-4.91,8.18c-3.02,7.93-23.91,3.27-13.34-7.8c3.15-3.15,8.81-5.54,17.12-5.54
		C424.11,86.91,412.41,114.48,420.96,122.53z M395.67,121.65c1.38-0.25,2.01-1.64,2.26-2.39c0.88-4.53,0.63-8.05,0.13-10.32
		c-0.25-1.13-1.38-1.38-3.02,0.25c-2.77,2.77-7.68,4.4-7.05,8.43C388.5,121.15,392.65,122.15,395.67,121.65z"/>
	<path class="st1" d="M454.82,81.25c2.14-6.17-1.64-10.57-6.04-8.81c-5.79,2.14-4.91,18.38,0.88,21.27h8.56
		c1.38,0,2.52,1.13,2.52,2.52v4.15h-11.71c-0.38,7.17-0.5,18,2.27,21.52c1.26,1.51,3.4,2.01,3.15,4.28
		c-0.63,3.78-10.19,4.41-15.1,4.41s-15.61-0.63-16.11-4.41c-0.25-2.01,2.27-2.27,3.65-4.03c2.64-3.4,3.27-14.1,2.89-21.77h-2.64
		c-1.38,0-2.39-1.13-2.39-2.39v-1.76c0-1.38,1.01-2.52,2.39-2.52h1.89c-3.4-15.23,9.06-26.3,22.02-26.3h0.13
		c10.57,0,19.76,4.03,22.15,12.33C476.47,91.32,450.79,93.33,454.82,81.25z"/>
	<path class="st1" d="M509.19,108.81c0,12.08-10.57,21.77-23.53,21.77s-23.41-9.69-23.41-21.77s10.45-21.9,23.41-21.9
		S509.19,96.73,509.19,108.81z M490.94,109.06c0-9.31-2.39-16.86-5.29-16.86s-5.16,7.55-5.16,16.86s2.27,16.99,5.16,16.99
		S490.94,118.38,490.94,109.06z"/>
	<path class="st1" d="M536.12,123.03c1.13,1.26,2.64,1.64,2.39,3.15c-0.5,3.78-10.19,4.41-15.1,4.41c-4.91,0-14.1-0.63-14.6-4.41
		c-0.25-1.64,1.13-2.27,2.27-3.4c2.64-2.39,2.77-12.58,2.77-19.76c0-8.18,0.38-14.6-2.27-18c-1.26-1.76-3.02-2.64-2.77-4.66
		c0.5-3.78,7.05-6.29,11.45-8.56c4.4-2.27,16.36-8.43,14.47-0.25C533.98,75.08,530.33,116.99,536.12,123.03z"/>
	<path class="st1" d="M566.45,123.03c1.13,1.26,2.64,1.64,2.39,3.15c-0.5,3.78-10.19,4.41-15.1,4.41c-4.91,0-14.1-0.63-14.6-4.41
		c-0.25-1.64,1.13-2.27,2.27-3.4c2.64-2.39,3.15-14.98,0.5-18.37c-1.26-1.64-3.02-2.64-2.77-4.53c0.5-3.78,7.05-6.42,11.45-8.68
		c4.4-2.14,16.36-8.31,14.47-0.25C564.31,94.59,560.66,116.99,566.45,123.03z M542.91,77.6c0-5.16,4.15-9.31,9.31-9.31
		s9.31,4.15,9.31,9.31s-4.15,9.31-9.31,9.31S542.91,82.76,542.91,77.6z"/>
	<path class="st1" d="M616.41,108.81c0,12.08-10.57,21.77-23.53,21.77s-23.41-9.69-23.41-21.77s10.45-21.9,23.41-21.9
		S616.41,96.73,616.41,108.81z M598.16,109.06c0-9.31-2.39-16.86-5.29-16.86s-5.16,7.55-5.16,16.86s2.27,16.99,5.16,16.99
		S598.16,118.38,598.16,109.06z"/>
</g>
</svg>
